<svg xmlns="http://www.w3.org/2000/svg" xmlns:xlink="http://www.w3.org/1999/xlink" width="1080" zoomAndPan="magnify" viewBox="0 0 810 809.999993" height="1080" preserveAspectRatio="xMidYMid meet" version="1.0"><defs><clipPath id="edb0ac1218"><path d="M 0 578 L 810 578 L 810 646.886719 L 0 646.886719 Z M 0 578 " clip-rule="nonzero"/></clipPath><clipPath id="f17b553419"><path d="M 643 163.136719 L 685 163.136719 L 685 249 L 643 249 Z M 643 163.136719 " clip-rule="nonzero"/></clipPath></defs><g clip-path="url(#edb0ac1218)"><path fill="#000000" d="M 809.84375 612.875 C 809.84375 613.429688 809.683594 613.988281 809.359375 614.542969 C 809.03125 615.097656 808.546875 615.652344 807.894531 616.207031 C 807.246094 616.761719 806.4375 617.3125 805.464844 617.863281 C 804.492188 618.414062 803.359375 618.964844 802.066406 619.507812 C 800.773438 620.054688 799.324219 620.597656 797.710938 621.136719 C 796.101562 621.679688 794.335938 622.214844 792.414062 622.746094 C 790.488281 623.28125 788.410156 623.808594 786.179688 624.332031 C 783.949219 624.855469 781.5625 625.375 779.027344 625.890625 C 776.492188 626.40625 773.808594 626.914062 770.976562 627.417969 C 768.144531 627.917969 765.164062 628.417969 762.042969 628.90625 C 758.917969 629.398438 755.652344 629.882812 752.246094 630.359375 C 748.839844 630.835938 745.296875 631.308594 741.617188 631.769531 C 737.9375 632.234375 734.121094 632.6875 730.175781 633.136719 C 726.226562 633.582031 722.152344 634.019531 717.949219 634.453125 C 713.746094 634.882812 709.421875 635.304688 704.96875 635.714844 C 700.519531 636.128906 695.953125 636.53125 691.269531 636.925781 C 686.582031 637.320312 681.785156 637.703125 676.878906 638.074219 C 671.96875 638.449219 666.953125 638.8125 661.832031 639.167969 C 656.710938 639.519531 651.488281 639.863281 646.167969 640.195312 C 640.84375 640.523438 635.429688 640.84375 629.917969 641.15625 C 624.410156 641.464844 618.816406 641.761719 613.132812 642.046875 C 607.449219 642.335938 601.6875 642.609375 595.84375 642.871094 C 590 643.132812 584.082031 643.382812 578.09375 643.621094 C 572.105469 643.859375 566.046875 644.085938 559.925781 644.296875 C 553.804688 644.511719 547.625 644.710938 541.386719 644.898438 C 535.148438 645.085938 528.859375 645.261719 522.519531 645.421875 C 516.179688 645.585938 509.796875 645.734375 503.371094 645.867188 C 496.941406 646.003906 490.480469 646.125 483.980469 646.234375 C 477.484375 646.34375 470.957031 646.4375 464.402344 646.519531 C 457.847656 646.601562 451.277344 646.667969 444.683594 646.722656 C 438.089844 646.777344 431.480469 646.820312 424.863281 646.847656 C 418.246094 646.875 411.625 646.886719 405 646.886719 C 398.375 646.886719 391.753906 646.875 385.136719 646.847656 C 378.515625 646.820312 371.910156 646.777344 365.316406 646.722656 C 358.722656 646.667969 352.152344 646.601562 345.597656 646.519531 C 339.042969 646.4375 332.515625 646.34375 326.019531 646.234375 C 319.519531 646.125 313.058594 646.003906 306.628906 645.867188 C 300.203125 645.734375 293.820312 645.585938 287.480469 645.421875 C 281.140625 645.261719 274.851562 645.085938 268.613281 644.898438 C 262.375 644.710938 256.195312 644.511719 250.074219 644.296875 C 243.949219 644.085938 237.894531 643.859375 231.90625 643.621094 C 225.917969 643.382812 220 643.132812 214.15625 642.871094 C 208.3125 642.609375 202.550781 642.335938 196.867188 642.046875 C 191.183594 641.761719 185.589844 641.464844 180.078125 641.15625 C 174.570312 640.84375 169.15625 640.523438 163.832031 640.195312 C 158.511719 639.863281 153.289062 639.519531 148.167969 639.167969 C 143.046875 638.8125 138.03125 638.449219 133.121094 638.074219 C 128.214844 637.703125 123.414062 637.320312 118.730469 636.925781 C 114.046875 636.53125 109.480469 636.128906 105.027344 635.714844 C 100.578125 635.304688 96.253906 634.882812 92.050781 634.453125 C 87.847656 634.019531 83.773438 633.582031 79.824219 633.136719 C 75.878906 632.6875 72.0625 632.234375 68.382812 631.769531 C 64.703125 631.308594 61.160156 630.835938 57.753906 630.359375 C 54.347656 629.882812 51.082031 629.398438 47.957031 628.90625 C 44.835938 628.417969 41.855469 627.917969 39.023438 627.417969 C 36.191406 626.914062 33.507812 626.40625 30.972656 625.890625 C 28.4375 625.375 26.050781 624.855469 23.820312 624.332031 C 21.589844 623.808594 19.511719 623.28125 17.585938 622.746094 C 15.664062 622.214844 13.898438 621.679688 12.289062 621.136719 C 10.675781 620.597656 9.226562 620.054688 7.933594 619.507812 C 6.640625 618.964844 5.507812 618.414062 4.535156 617.863281 C 3.5625 617.3125 2.753906 616.761719 2.105469 616.207031 C 1.453125 615.652344 0.96875 615.097656 0.640625 614.542969 C 0.316406 613.988281 0.15625 613.429688 0.15625 612.875 C 0.15625 612.316406 0.316406 611.761719 0.640625 611.203125 C 0.96875 610.648438 1.453125 610.09375 2.105469 609.539062 C 2.753906 608.984375 3.5625 608.433594 4.535156 607.882812 C 5.507812 607.332031 6.640625 606.785156 7.933594 606.238281 C 9.226562 605.691406 10.675781 605.148438 12.289062 604.609375 C 13.898438 604.070312 15.664062 603.53125 17.585938 603 C 19.511719 602.46875 21.589844 601.9375 23.820312 601.414062 C 26.050781 600.890625 28.4375 600.371094 30.972656 599.855469 C 33.507812 599.34375 36.191406 598.835938 39.023438 598.332031 C 41.855469 597.828125 44.835938 597.332031 47.957031 596.839844 C 51.082031 596.347656 54.347656 595.863281 57.753906 595.386719 C 61.160156 594.910156 64.703125 594.4375 68.382812 593.976562 C 72.0625 593.515625 75.878906 593.058594 79.824219 592.613281 C 83.773438 592.164062 87.847656 591.726562 92.050781 591.296875 C 96.253906 590.863281 100.578125 590.445312 105.027344 590.03125 C 109.480469 589.617188 114.046875 589.214844 118.730469 588.820312 C 123.414062 588.429688 128.214844 588.042969 133.121094 587.671875 C 138.03125 587.296875 143.046875 586.933594 148.167969 586.582031 C 153.289062 586.226562 158.511719 585.886719 163.832031 585.554688 C 169.15625 585.222656 174.570312 584.902344 180.078125 584.59375 C 185.589844 584.28125 191.183594 583.984375 196.867188 583.699219 C 202.550781 583.414062 208.3125 583.136719 214.15625 582.875 C 220 582.613281 225.917969 582.363281 231.90625 582.125 C 237.894531 581.886719 243.949219 581.660156 250.074219 581.449219 C 256.195312 581.234375 262.375 581.035156 268.613281 580.847656 C 274.851562 580.660156 281.140625 580.484375 287.480469 580.324219 C 293.820312 580.164062 300.203125 580.015625 306.628906 579.878906 C 313.058594 579.742188 319.519531 579.621094 326.019531 579.511719 C 332.515625 579.40625 339.042969 579.308594 345.597656 579.226562 C 352.152344 579.144531 358.722656 579.078125 365.316406 579.023438 C 371.910156 578.96875 378.515625 578.929688 385.136719 578.902344 C 391.753906 578.875 398.375 578.859375 405 578.859375 C 411.625 578.859375 418.246094 578.875 424.863281 578.902344 C 431.480469 578.929688 438.089844 578.96875 444.683594 579.023438 C 451.277344 579.078125 457.847656 579.144531 464.402344 579.226562 C 470.957031 579.308594 477.484375 579.40625 483.980469 579.511719 C 490.480469 579.621094 496.941406 579.742188 503.371094 579.878906 C 509.796875 580.015625 516.179688 580.164062 522.519531 580.324219 C 528.859375 580.484375 535.148438 580.660156 541.386719 580.847656 C 547.625 581.035156 553.804688 581.234375 559.925781 581.449219 C 566.046875 581.660156 572.105469 581.886719 578.09375 582.125 C 584.082031 582.363281 590 582.613281 595.84375 582.875 C 601.6875 583.136719 607.449219 583.414062 613.132812 583.699219 C 618.816406 583.984375 624.410156 584.28125 629.921875 584.59375 C 635.429688 584.902344 640.84375 585.222656 646.167969 585.554688 C 651.488281 585.886719 656.710938 586.226562 661.832031 586.582031 C 666.953125 586.933594 671.96875 587.296875 676.878906 587.671875 C 681.785156 588.042969 686.582031 588.429688 691.269531 588.820312 C 695.953125 589.214844 700.519531 589.617188 704.96875 590.03125 C 709.421875 590.445312 713.746094 590.863281 717.949219 591.296875 C 722.152344 591.726562 726.226562 592.164062 730.175781 592.613281 C 734.121094 593.058594 737.9375 593.515625 741.617188 593.976562 C 745.296875 594.4375 748.839844 594.910156 752.246094 595.386719 C 755.652344 595.863281 758.917969 596.347656 762.042969 596.839844 C 765.164062 597.332031 768.144531 597.828125 770.976562 598.332031 C 773.808594 598.835938 776.492188 599.34375 779.027344 599.855469 C 781.5625 600.371094 783.949219 600.890625 786.179688 601.414062 C 788.410156 601.9375 790.488281 602.46875 792.414062 603 C 794.335938 603.53125 796.101562 604.070312 797.710938 604.609375 C 799.324219 605.148438 800.773438 605.691406 802.066406 606.238281 C 803.359375 606.785156 804.492188 607.332031 805.464844 607.882812 C 806.4375 608.433594 807.246094 608.984375 807.894531 609.539062 C 808.546875 610.09375 809.03125 610.648438 809.359375 611.203125 C 809.683594 611.761719 809.84375 612.316406 809.84375 612.875 Z M 809.84375 612.875 " fill-opacity="0.149" fill-rule="nonzero"/></g><path fill="#00bb5f" d="M 58.730469 436.1875 C 57.851562 436.285156 56.878906 436.445312 56.339844 437.144531 C 55.9375 437.664062 55.878906 438.367188 55.859375 439.023438 C 55.503906 450.566406 61.925781 461.734375 71.265625 468.515625 C 80.605469 475.292969 92.507812 477.980469 104.039062 477.511719 C 112.019531 477.183594 121.820312 475.902344 129.078125 472.339844 C 137.089844 468.40625 129.078125 461.515625 124.769531 457.683594 C 119.027344 452.621094 112.730469 448.375 105.878906 444.957031 C 99.03125 441.535156 91.855469 439.050781 84.355469 437.503906 C 75.882812 435.734375 67.339844 435.296875 58.730469 436.1875 Z M 58.730469 436.1875 " fill-opacity="1" fill-rule="nonzero"/><path fill="#00bb5f" d="M 79.414062 487.316406 C 78.578125 487.605469 77.667969 487.980469 77.28125 488.785156 C 77.007812 489.382812 77.109375 490.078125 77.234375 490.726562 C 79.464844 502.050781 88.246094 511.496094 98.863281 516.007812 C 109.480469 520.523438 121.6875 520.46875 132.820312 517.429688 C 140.527344 515.324219 149.785156 511.875 156.058594 506.769531 C 162.988281 501.140625 153.636719 496.222656 148.574219 493.457031 C 141.839844 489.808594 134.753906 487.085938 127.308594 485.289062 C 119.863281 483.492188 112.3125 482.679688 104.65625 482.855469 C 96.011719 483.03125 87.597656 484.519531 79.414062 487.316406 Z M 79.414062 487.316406 " fill-opacity="1" fill-rule="nonzero"/><path fill="#00bb5f" d="M 130.59375 343.710938 C 131.199219 343.066406 131.914062 342.390625 132.800781 342.382812 C 133.457031 342.382812 134.050781 342.761719 134.574219 343.140625 C 143.980469 349.835938 148.976562 361.722656 148.710938 373.265625 C 148.449219 384.804688 143.382812 395.902344 136.027344 404.792969 C 130.929688 410.949219 123.976562 417.96875 116.746094 421.585938 C 108.765625 425.582031 108.128906 415.039062 107.695312 409.285156 C 107.140625 401.648438 107.578125 394.066406 109.007812 386.542969 C 110.433594 379.015625 112.800781 371.800781 116.113281 364.894531 C 119.835938 357.082031 124.664062 350.019531 130.59375 343.710938 Z M 130.59375 343.710938 " fill-opacity="1" fill-rule="nonzero"/><path fill="#00bb5f" d="M 150.378906 389.546875 C 150.945312 388.867188 151.617188 388.125 152.511719 388.082031 C 153.167969 388.039062 153.78125 388.378906 154.34375 388.722656 C 164.160156 394.796875 169.914062 406.335938 170.394531 417.859375 C 170.878906 429.382812 166.539062 440.789062 159.765625 450.140625 C 155.058594 456.621094 148.582031 464.085938 141.601562 468.15625 C 133.890625 472.65625 132.578125 462.175781 131.773438 456.464844 C 130.726562 448.875 130.671875 441.285156 131.609375 433.683594 C 132.542969 426.082031 134.4375 418.730469 137.292969 411.621094 C 140.507812 403.585938 144.871094 396.226562 150.378906 389.546875 Z M 150.378906 389.546875 " fill-opacity="1" fill-rule="nonzero"/><path fill="#00bb5f" d="M 175.089844 428.976562 C 175.609375 428.351562 176.222656 427.691406 177.027344 427.632812 C 177.652344 427.648438 178.210938 427.84375 178.710938 428.21875 C 187.707031 433.785156 192.980469 444.363281 193.425781 454.9375 C 193.871094 465.511719 189.871094 475.957031 183.683594 484.53125 C 179.386719 490.460938 173.441406 497.296875 167.042969 501.035156 C 159.976562 505.160156 158.769531 495.554688 158.03125 490.316406 C 157.074219 483.363281 157.023438 476.402344 157.886719 469.433594 C 158.746094 462.464844 160.484375 455.722656 163.105469 449.210938 C 166.046875 441.84375 170.042969 435.097656 175.089844 428.976562 Z M 175.089844 428.976562 " fill-opacity="1" fill-rule="nonzero"/><path fill="#00bb5f" d="M 34.53125 393.074219 C 33.65625 393.191406 32.6875 393.382812 32.167969 394.09375 C 31.78125 394.628906 31.746094 395.332031 31.742188 395.988281 C 31.691406 407.535156 38.4375 418.523438 47.960938 425.042969 C 57.488281 431.5625 69.457031 433.925781 80.972656 433.121094 C 88.945312 432.574219 98.703125 431.023438 105.84375 427.261719 C 113.746094 423.101562 105.550781 416.4375 101.128906 412.726562 C 95.253906 407.828125 88.84375 403.761719 81.90625 400.53125 C 74.96875 397.304688 67.730469 395.015625 60.199219 393.675781 C 51.671875 392.140625 43.117188 391.941406 34.53125 393.074219 Z M 34.53125 393.074219 " fill-opacity="1" fill-rule="nonzero"/><path fill="#00bb5f" d="M 107.070312 359.1875 C 104.226562 345.683594 97.046875 333.441406 88.410156 322.691406 C 84.738281 318.121094 80.148438 313.453125 74.296875 313.097656 C 65.394531 333.175781 66.082031 357.257812 76.113281 376.792969 C 79.085938 382.578125 93.539062 403.609375 100.902344 397.203125 C 109.796875 389.46875 109.207031 369.347656 107.070312 359.1875 Z M 107.070312 359.1875 " fill-opacity="1" fill-rule="nonzero"/><path fill="#00663e" d="M 189.589844 523.933594 C 180.097656 517.09375 171.292969 509.460938 163.175781 501.035156 C 166.417969 496.519531 169.25 491.753906 171.667969 486.75 C 174.085938 481.742188 176.0625 476.5625 177.585938 471.214844 C 179.113281 465.867188 180.167969 460.429688 180.757812 454.898438 C 181.34375 449.371094 181.453125 443.832031 181.085938 438.28125 C 180.910156 435.753906 176.9375 435.582031 177.113281 438.136719 C 177.476562 443.425781 177.386719 448.707031 176.847656 453.980469 C 176.308594 459.257812 175.328125 464.449219 173.902344 469.554688 C 172.480469 474.660156 170.632812 479.609375 168.363281 484.402344 C 166.09375 489.195312 163.433594 493.761719 160.386719 498.097656 C 151.820312 488.875 144.035156 479.035156 137.035156 468.574219 C 137.148438 468.46875 137.25 468.347656 137.335938 468.21875 C 140.882812 463.289062 143.976562 458.085938 146.625 452.621094 C 149.269531 447.152344 151.429688 441.5 153.097656 435.660156 C 154.769531 429.816406 155.925781 423.878906 156.566406 417.835938 C 157.210938 411.796875 157.328125 405.746094 156.925781 399.683594 C 156.734375 396.929688 152.402344 396.742188 152.597656 399.523438 C 152.988281 405.273438 152.894531 411.015625 152.3125 416.75 C 151.730469 422.484375 150.667969 428.125 149.125 433.679688 C 147.582031 439.230469 145.582031 444.613281 143.125 449.828125 C 140.667969 455.039062 137.789062 460.007812 134.488281 464.730469 C 133.808594 463.6875 133.125 462.636719 132.460938 461.582031 C 124.5625 448.902344 117.613281 435.722656 111.617188 422.035156 C 111.964844 421.898438 112.257812 421.683594 112.492188 421.390625 C 116.347656 416.695312 119.773438 411.707031 122.765625 406.421875 C 125.761719 401.136719 128.28125 395.632812 130.324219 389.914062 C 132.367188 384.191406 133.902344 378.339844 134.933594 372.351562 C 135.964844 366.367188 136.472656 360.335938 136.460938 354.261719 C 136.460938 351.496094 132.140625 351.03125 132.152344 353.824219 C 132.175781 359.597656 131.707031 365.332031 130.75 371.027344 C 129.796875 376.722656 128.363281 382.292969 126.460938 387.746094 C 124.554688 393.195312 122.203125 398.445312 119.40625 403.496094 C 116.605469 408.546875 113.398438 413.324219 109.789062 417.828125 C 104.148438 404.640625 99.246094 391.125 94.882812 377.46875 C 89.367188 360.195312 84.667969 342.648438 80.269531 325.078125 C 79.597656 322.371094 75.425781 323.550781 76.101562 326.261719 C 84.007812 357.882812 92.917969 389.421875 105.777344 419.453125 C 100.097656 419.695312 94.441406 419.464844 88.800781 418.757812 C 83.164062 418.050781 77.621094 416.882812 72.179688 415.246094 C 66.738281 413.613281 61.46875 411.535156 56.375 409.015625 C 51.28125 406.5 46.429688 403.574219 41.824219 400.242188 C 39.566406 398.601562 37.429688 402.375 39.664062 403.996094 C 44.554688 407.523438 49.710938 410.605469 55.128906 413.242188 C 60.546875 415.882812 66.148438 418.042969 71.9375 419.722656 C 77.726562 421.398438 83.617188 422.574219 89.605469 423.242188 C 95.597656 423.910156 101.601562 424.066406 107.617188 423.703125 C 113.828125 437.839844 121.035156 451.453125 129.234375 464.535156 C 123.550781 464.625 117.902344 464.238281 112.28125 463.378906 C 106.664062 462.515625 101.152344 461.195312 95.757812 459.410156 C 90.359375 457.625 85.148438 455.40625 80.121094 452.746094 C 75.097656 450.089844 70.328125 447.03125 65.816406 443.574219 C 63.609375 441.875 61.367188 445.585938 63.554688 447.269531 C 68.382812 450.957031 73.492188 454.203125 78.882812 457.003906 C 84.273438 459.808594 89.863281 462.128906 95.652344 463.964844 C 101.441406 465.804688 107.347656 467.128906 113.367188 467.945312 C 119.386719 468.761719 125.433594 469.054688 131.503906 468.828125 C 131.660156 468.820312 131.816406 468.800781 131.96875 468.765625 C 137.996094 477.964844 144.605469 486.730469 151.792969 495.054688 C 152.925781 496.363281 154.085938 497.652344 155.25 498.9375 C 149.675781 500.351562 144.023438 501.289062 138.292969 501.75 C 132.558594 502.207031 126.832031 502.179688 121.101562 501.664062 C 115.375 501.148438 109.730469 500.15625 104.171875 498.683594 C 98.613281 497.210938 93.21875 495.285156 87.988281 492.894531 C 85.449219 491.734375 84.101562 495.855469 86.613281 497.007812 C 92.144531 499.519531 97.851562 501.535156 103.734375 503.0625 C 109.613281 504.585938 115.582031 505.59375 121.636719 506.085938 C 127.691406 506.578125 133.746094 506.550781 139.796875 505.996094 C 145.847656 505.441406 151.804688 504.375 157.667969 502.792969 C 157.972656 502.710938 158.246094 502.574219 158.488281 502.378906 C 167.339844 511.730469 176.992188 520.164062 187.445312 527.679688 C 189.703125 529.316406 191.835938 525.554688 189.589844 523.933594 Z M 189.589844 523.933594 " fill-opacity="1" fill-rule="nonzero"/><path fill="#82ff44" d="M 31.042969 521.90625 C 30.445312 522.222656 29.796875 522.617188 29.621094 523.261719 C 29.527344 523.773438 29.589844 524.265625 29.8125 524.734375 C 32.808594 533.046875 40.539062 539.179688 49.101562 541.363281 C 57.664062 543.550781 66.867188 542.097656 74.957031 538.523438 C 80.539062 536.035156 87.148438 532.355469 91.300781 527.773438 C 95.886719 522.710938 88.242188 520.070312 84.09375 518.5625 C 78.574219 516.582031 72.894531 515.339844 67.054688 514.84375 C 61.214844 514.34375 55.40625 514.601562 49.632812 515.621094 C 43.109375 516.753906 36.914062 518.847656 31.042969 521.90625 Z M 31.042969 521.90625 " fill-opacity="1" fill-rule="nonzero"/><path fill="#82ff44" d="M 60.199219 552.433594 C 59.6875 552.875 59.132812 553.402344 59.105469 554.078125 C 59.128906 554.597656 59.300781 555.0625 59.621094 555.46875 C 64.40625 562.898438 73.316406 567.136719 82.148438 567.34375 C 90.984375 567.550781 99.640625 564.070312 106.703125 558.761719 C 111.589844 555.082031 117.203125 550.015625 120.222656 544.613281 C 123.5625 538.652344 115.523438 537.792969 111.136719 537.257812 C 105.316406 536.5625 99.503906 536.628906 93.699219 537.453125 C 87.894531 538.277344 82.292969 539.832031 76.894531 542.121094 C 70.792969 544.691406 65.226562 548.128906 60.199219 552.433594 Z M 60.199219 552.433594 " fill-opacity="1" fill-rule="nonzero"/><path fill="#82ff44" d="M 56.039062 435.824219 C 56.292969 435.195312 56.609375 434.511719 57.238281 434.257812 C 57.738281 434.109375 58.230469 434.121094 58.722656 434.292969 C 67.304688 436.394531 74.214844 443.441406 77.285156 451.722656 C 80.359375 460.003906 79.886719 469.332031 77.164062 477.738281 C 75.28125 483.554688 72.316406 490.53125 68.195312 495.128906 C 63.644531 500.226562 60.214844 492.902344 58.28125 488.933594 C 55.730469 483.65625 53.898438 478.140625 52.789062 472.386719 C 51.679688 466.628906 51.328125 460.828125 51.730469 454.980469 C 52.171875 448.371094 53.609375 441.984375 56.039062 435.824219 Z M 56.039062 435.824219 " fill-opacity="1" fill-rule="nonzero"/><path fill="#82ff44" d="M 83.0625 462.839844 C 83.273438 462.199219 83.546875 461.492188 84.152344 461.203125 C 84.640625 461.023438 85.136719 461 85.640625 461.140625 C 94.339844 462.683594 101.6875 469.269531 105.289062 477.335938 C 108.894531 485.40625 109.023438 494.746094 106.851562 503.304688 C 105.34375 509.230469 102.835938 516.363281 99.035156 521.238281 C 94.824219 526.617188 90.925781 519.535156 88.730469 515.695312 C 85.84375 510.59375 83.660156 505.207031 82.183594 499.535156 C 80.703125 493.863281 79.976562 488.097656 80 482.238281 C 80.011719 475.613281 81.035156 469.148438 83.0625 462.839844 Z M 83.0625 462.839844 " fill-opacity="1" fill-rule="nonzero"/><path fill="#82ff44" d="M 111.777344 483.90625 C 111.96875 483.316406 112.21875 482.675781 112.777344 482.402344 C 113.222656 482.242188 113.675781 482.222656 114.136719 482.347656 C 122.113281 483.769531 128.847656 489.808594 132.152344 497.195312 C 135.457031 504.582031 135.574219 513.148438 133.574219 521 C 132.191406 526.429688 129.894531 532.976562 126.398438 537.441406 C 122.535156 542.375 118.964844 535.875 116.960938 532.359375 C 114.316406 527.683594 112.316406 522.746094 110.960938 517.546875 C 109.601562 512.347656 108.9375 507.058594 108.960938 501.6875 C 108.976562 495.613281 109.914062 489.6875 111.777344 483.90625 Z M 111.777344 483.90625 " fill-opacity="1" fill-rule="nonzero"/><path fill="#82ff44" d="M 1.652344 498.074219 C 1.0625 498.40625 0.429688 498.8125 0.261719 499.464844 C 0.1875 499.984375 0.269531 500.472656 0.511719 500.9375 C 3.707031 509.164062 11.617188 515.074219 20.234375 517.023438 C 28.855469 518.976562 38.03125 517.261719 46 513.449219 C 51.515625 510.808594 58.015625 506.945312 62.042969 502.246094 C 66.488281 497.058594 58.777344 494.632812 54.582031 493.242188 C 49.015625 491.414062 43.304688 490.332031 37.453125 489.996094 C 31.601562 489.660156 25.804688 490.082031 20.066406 491.257812 C 13.574219 492.574219 7.4375 494.847656 1.652344 498.074219 Z M 1.652344 498.074219 " fill-opacity="1" fill-rule="nonzero"/><path fill="#82ff44" d="M 43.679688 453.476562 C 37.855469 444.675781 29.28125 437.992188 20.097656 432.789062 C 16.1875 430.570312 11.613281 428.546875 7.347656 429.945312 C 6.6875 446.746094 13.980469 463.683594 26.628906 474.742188 C 30.382812 478.023438 46.605469 488.898438 50.027344 482.261719 C 54.15625 474.242188 48.066406 460.101562 43.679688 453.476562 Z M 43.679688 453.476562 " fill-opacity="1" fill-rule="nonzero"/><path fill="#00663e" d="M 148.910156 547.359375 C 140.226562 545.175781 131.808594 542.238281 123.652344 538.542969 C 124.683594 534.414062 125.351562 530.222656 125.660156 525.976562 C 125.96875 521.730469 125.910156 517.492188 125.488281 513.253906 C 125.0625 509.019531 124.28125 504.851562 123.136719 500.75 C 121.992188 496.648438 120.507812 492.675781 118.675781 488.832031 C 117.839844 487.085938 114.964844 488.085938 115.808594 489.851562 C 117.5625 493.511719 118.992188 497.296875 120.101562 501.203125 C 121.207031 505.109375 121.976562 509.078125 122.402344 513.117188 C 122.832031 517.152344 122.917969 521.195312 122.65625 525.246094 C 122.394531 529.296875 121.792969 533.296875 120.847656 537.246094 C 112.148438 533.105469 103.828125 528.300781 95.890625 522.839844 C 95.941406 522.722656 95.984375 522.605469 96.011719 522.484375 C 97.140625 517.972656 97.875 513.398438 98.214844 508.761719 C 98.550781 504.125 98.488281 499.492188 98.027344 494.867188 C 97.5625 490.242188 96.707031 485.6875 95.460938 481.210938 C 94.210938 476.730469 92.585938 472.394531 90.589844 468.195312 C 89.675781 466.289062 86.539062 467.382812 87.464844 469.308594 C 89.371094 473.289062 90.925781 477.398438 92.132812 481.644531 C 93.335938 485.890625 94.175781 490.207031 94.648438 494.59375 C 95.121094 498.980469 95.21875 503.375 94.941406 507.78125 C 94.667969 512.183594 94.023438 516.53125 93.007812 520.828125 C 92.226562 520.269531 91.445312 519.710938 90.671875 519.144531 C 81.46875 512.355469 72.804688 504.941406 64.675781 496.902344 C 64.882812 496.703125 65.027344 496.464844 65.109375 496.191406 C 66.527344 491.761719 67.554688 487.246094 68.195312 482.640625 C 68.832031 478.035156 69.066406 473.410156 68.90625 468.761719 C 68.742188 464.117188 68.183594 459.519531 67.226562 454.96875 C 66.269531 450.417969 64.929688 445.984375 63.207031 441.667969 C 62.414062 439.707031 59.21875 440.601562 60.007812 442.574219 C 61.65625 446.675781 62.945312 450.886719 63.875 455.207031 C 64.804688 459.527344 65.363281 463.898438 65.546875 468.3125 C 65.734375 472.730469 65.542969 477.128906 64.980469 481.515625 C 64.414062 485.898438 63.484375 490.203125 62.1875 494.425781 C 54.449219 486.640625 47.140625 478.40625 40.179688 469.910156 C 31.375 459.179688 23.082031 448.042969 14.988281 436.769531 C 13.742188 435.039062 11.109375 437.050781 12.355469 438.789062 C 26.921875 459.066406 42.164062 478.980469 59.796875 496.707031 C 55.824219 498.480469 51.734375 499.914062 47.523438 501.007812 C 43.3125 502.097656 39.039062 502.832031 34.707031 503.203125 C 30.371094 503.578125 26.039062 503.589844 21.703125 503.238281 C 17.367188 502.886719 13.089844 502.175781 8.875 501.109375 C 6.800781 500.582031 6.351562 503.867188 8.398438 504.390625 C 12.871094 505.515625 17.410156 506.253906 22.007812 506.601562 C 26.609375 506.949219 31.207031 506.902344 35.796875 506.460938 C 40.390625 506.019531 44.910156 505.191406 49.363281 503.972656 C 53.8125 502.757812 58.125 501.171875 62.304688 499.214844 C 70.71875 507.523438 79.691406 515.171875 89.226562 522.167969 C 85.207031 523.832031 81.074219 525.152344 76.832031 526.128906 C 72.589844 527.101562 68.296875 527.714844 63.949219 527.96875 C 59.605469 528.21875 55.269531 528.109375 50.941406 527.636719 C 46.613281 527.160156 42.355469 526.328125 38.167969 525.140625 C 36.113281 524.558594 35.570312 527.832031 37.605469 528.410156 C 42.078125 529.667969 46.628906 530.535156 51.253906 531.007812 C 55.878906 531.484375 60.511719 531.554688 65.148438 531.226562 C 69.785156 530.902344 74.359375 530.179688 78.871094 529.058594 C 83.382812 527.941406 87.765625 526.445312 92.019531 524.570312 C 92.132812 524.519531 92.234375 524.460938 92.332031 524.390625 C 99.21875 529.234375 106.394531 533.601562 113.859375 537.492188 C 115.039062 538.105469 116.230469 538.699219 117.414062 539.285156 C 113.847656 541.867188 110.09375 544.125 106.144531 546.070312 C 102.199219 548.011719 98.117188 549.609375 93.898438 550.859375 C 89.679688 552.113281 85.386719 553 81.019531 553.523438 C 76.648438 554.046875 72.269531 554.195312 67.875 553.976562 C 65.742188 553.867188 65.945312 557.175781 68.054688 557.289062 C 72.699219 557.515625 77.332031 557.339844 81.945312 556.761719 C 86.558594 556.1875 91.089844 555.222656 95.535156 553.863281 C 99.984375 552.503906 104.28125 550.773438 108.429688 548.671875 C 112.578125 546.570312 116.515625 544.128906 120.242188 541.347656 C 120.429688 541.207031 120.585938 541.035156 120.707031 540.832031 C 129.644531 544.980469 138.894531 548.25 148.453125 550.640625 C 150.511719 551.15625 150.964844 547.867188 148.910156 547.359375 Z M 148.910156 547.359375 " fill-opacity="1" fill-rule="nonzero"/><path fill="#00bb5f" d="M 693.40625 286.230469 C 694.28125 286.324219 695.257812 286.484375 695.796875 287.183594 C 696.199219 287.707031 696.253906 288.40625 696.277344 289.066406 C 696.628906 300.601562 690.210938 311.777344 680.871094 318.558594 C 671.53125 325.335938 659.628906 328.023438 648.09375 327.554688 C 640.117188 327.230469 630.332031 325.945312 623.058594 322.382812 C 615.042969 318.449219 623.058594 311.558594 627.363281 307.726562 C 633.109375 302.660156 639.40625 298.417969 646.253906 294.996094 C 653.105469 291.574219 660.28125 289.089844 667.78125 287.542969 C 676.253906 285.773438 684.796875 285.335938 693.40625 286.230469 Z M 693.40625 286.230469 " fill-opacity="1" fill-rule="nonzero"/><path fill="#00bb5f" d="M 672.707031 337.359375 C 673.539062 337.648438 674.453125 338.019531 674.835938 338.824219 C 675.113281 339.425781 675.011719 340.121094 674.886719 340.765625 C 672.65625 352.089844 663.875 361.539062 653.257812 366.050781 C 642.640625 370.5625 630.433594 370.511719 619.300781 367.472656 C 611.59375 365.363281 602.335938 361.914062 596.0625 356.8125 C 589.132812 351.179688 598.484375 346.265625 603.546875 343.5 C 610.28125 339.851562 617.367188 337.128906 624.8125 335.332031 C 632.257812 333.535156 639.808594 332.722656 647.464844 332.898438 C 656.109375 333.074219 664.523438 334.5625 672.707031 337.359375 Z M 672.707031 337.359375 " fill-opacity="1" fill-rule="nonzero"/><path fill="#00bb5f" d="M 621.546875 193.746094 C 620.9375 193.109375 620.222656 192.429688 619.339844 192.425781 C 618.683594 192.425781 618.089844 192.78125 617.5625 193.183594 C 608.15625 199.875 603.164062 211.761719 603.425781 223.300781 C 603.6875 234.84375 608.753906 245.9375 616.113281 254.832031 C 621.207031 260.988281 628.160156 268.011719 635.390625 271.628906 C 643.375 275.621094 644.011719 265.074219 644.441406 259.324219 C 644.996094 251.683594 644.558594 244.101562 643.132812 236.578125 C 641.707031 229.054688 639.335938 221.839844 636.027344 214.933594 C 632.300781 207.117188 627.472656 200.058594 621.546875 193.746094 Z M 621.546875 193.746094 " fill-opacity="1" fill-rule="nonzero"/><path fill="#00bb5f" d="M 601.757812 239.585938 C 601.191406 238.90625 600.519531 238.1875 599.625 238.121094 C 598.96875 238.074219 598.351562 238.417969 597.789062 238.761719 C 587.972656 244.835938 582.222656 256.375 581.738281 267.898438 C 581.257812 279.417969 585.597656 290.832031 592.371094 300.183594 C 597.050781 306.652344 603.539062 314.109375 610.519531 318.1875 C 618.230469 322.6875 619.542969 312.203125 620.347656 306.492188 C 621.390625 298.902344 621.445312 291.308594 620.507812 283.710938 C 619.570312 276.109375 617.671875 268.757812 614.816406 261.652344 C 611.605469 253.617188 607.253906 246.261719 601.757812 239.585938 Z M 601.757812 239.585938 " fill-opacity="1" fill-rule="nonzero"/><path fill="#00bb5f" d="M 577.046875 279.015625 C 576.527344 278.390625 575.914062 277.726562 575.105469 277.671875 C 574.484375 277.6875 573.921875 277.882812 573.425781 278.261719 C 564.425781 283.824219 559.152344 294.402344 558.710938 304.976562 C 558.265625 315.550781 562.261719 326 568.453125 334.570312 C 572.746094 340.503906 578.695312 347.335938 585.09375 351.074219 C 592.160156 355.203125 593.363281 345.59375 594.101562 340.355469 C 595.0625 333.398438 595.109375 326.4375 594.25 319.472656 C 593.390625 312.503906 591.648438 305.761719 589.03125 299.25 C 586.085938 291.882812 582.09375 285.136719 577.046875 279.015625 Z M 577.046875 279.015625 " fill-opacity="1" fill-rule="nonzero"/><path fill="#00bb5f" d="M 717.601562 243.113281 C 718.476562 243.230469 719.445312 243.417969 719.964844 244.132812 C 720.351562 244.667969 720.386719 245.371094 720.390625 246.027344 C 720.441406 257.570312 713.699219 268.5625 704.171875 275.082031 C 694.648438 281.601562 682.679688 283.964844 671.160156 283.164062 C 663.191406 282.617188 653.433594 281.0625 646.289062 277.296875 C 638.390625 273.140625 646.585938 266.480469 651.003906 262.769531 C 656.886719 257.863281 663.300781 253.796875 670.242188 250.566406 C 677.1875 247.335938 684.429688 245.054688 691.96875 243.714844 C 700.484375 242.183594 709.027344 241.984375 717.601562 243.113281 Z M 717.601562 243.113281 " fill-opacity="1" fill-rule="nonzero"/><g clip-path="url(#f17b553419)"><path fill="#00bb5f" d="M 645.066406 209.226562 C 647.90625 195.726562 655.085938 183.480469 663.722656 172.730469 C 667.398438 168.15625 671.984375 163.492188 677.839844 163.136719 C 686.722656 183.210938 686.054688 207.296875 676.019531 226.828125 C 673.050781 232.617188 658.613281 253.648438 651.234375 247.242188 C 642.335938 239.5 642.929688 219.386719 645.066406 209.226562 Z M 645.066406 209.226562 " fill-opacity="1" fill-rule="nonzero"/></g><path fill="#00663e" d="M 562.542969 373.972656 C 572.035156 367.128906 580.839844 359.5 588.957031 351.074219 C 585.71875 346.554688 582.886719 341.792969 580.46875 336.785156 C 578.046875 331.78125 576.074219 326.601562 574.546875 321.253906 C 573.023438 315.90625 571.964844 310.46875 571.378906 304.9375 C 570.789062 299.410156 570.679688 293.867188 571.046875 288.320312 C 571.226562 285.792969 575.199219 285.625 575.019531 288.175781 C 574.660156 293.464844 574.75 298.746094 575.289062 304.023438 C 575.828125 309.296875 576.808594 314.488281 578.234375 319.59375 C 579.660156 324.703125 581.507812 329.652344 583.777344 334.445312 C 586.046875 339.234375 588.707031 343.800781 591.753906 348.140625 C 600.320312 338.917969 608.105469 329.078125 615.109375 318.617188 C 614.996094 318.507812 614.894531 318.390625 614.804688 318.261719 C 611.261719 313.328125 608.164062 308.128906 605.515625 302.660156 C 602.871094 297.195312 600.710938 291.539062 599.042969 285.699219 C 597.375 279.859375 596.21875 273.917969 595.574219 267.878906 C 594.933594 261.839844 594.8125 255.789062 595.214844 249.726562 C 595.40625 246.972656 599.738281 246.785156 599.546875 249.570312 C 599.15625 255.320312 599.25 261.058594 599.835938 266.792969 C 600.417969 272.523438 601.484375 278.164062 603.027344 283.71875 C 604.570312 289.269531 606.570312 294.648438 609.027344 299.863281 C 611.484375 305.074219 614.363281 310.039062 617.664062 314.761719 C 618.34375 313.714844 619.027344 312.664062 619.691406 311.609375 C 627.589844 298.929688 634.539062 285.75 640.535156 272.066406 C 640.1875 271.925781 639.894531 271.710938 639.660156 271.417969 C 635.804688 266.726562 632.378906 261.734375 629.386719 256.449219 C 626.390625 251.164062 623.871094 245.660156 621.828125 239.941406 C 619.785156 234.21875 618.25 228.367188 617.21875 222.378906 C 616.1875 216.394531 615.679688 210.363281 615.691406 204.289062 C 615.691406 201.527344 620.015625 201.058594 620 203.851562 C 619.980469 209.625 620.449219 215.359375 621.40625 221.054688 C 622.363281 226.75 623.792969 232.324219 625.699219 237.773438 C 627.605469 243.226562 629.960938 248.476562 632.761719 253.523438 C 635.5625 258.574219 638.769531 263.351562 642.382812 267.855469 C 648.019531 254.667969 652.925781 241.15625 657.304688 227.5 C 662.820312 210.222656 667.519531 192.699219 671.917969 175.105469 C 672.59375 172.398438 676.761719 173.578125 676.085938 176.289062 C 668.179688 207.925781 659.269531 239.449219 646.410156 269.480469 C 652.089844 269.722656 657.746094 269.492188 663.386719 268.785156 C 669.023438 268.078125 674.566406 266.910156 680.007812 265.273438 C 685.449219 263.640625 690.71875 261.5625 695.8125 259.042969 C 700.910156 256.527344 705.757812 253.601562 710.363281 250.269531 C 712.621094 248.632812 714.757812 252.402344 712.523438 254.027344 C 707.632812 257.550781 702.476562 260.632812 697.058594 263.273438 C 691.640625 265.914062 686.039062 268.074219 680.25 269.75 C 674.460938 271.429688 668.570312 272.601562 662.582031 273.269531 C 656.589844 273.9375 650.585938 274.09375 644.570312 273.730469 C 638.359375 287.871094 631.15625 301.480469 622.953125 314.566406 C 628.636719 314.652344 634.289062 314.265625 639.90625 313.402344 C 645.527344 312.539062 651.035156 311.214844 656.433594 309.429688 C 661.828125 307.644531 667.039062 305.421875 672.066406 302.761719 C 677.089844 300.105469 681.859375 297.042969 686.371094 293.585938 C 688.578125 291.882812 690.820312 295.597656 688.632812 297.28125 C 683.804688 300.96875 678.699219 304.214844 673.308594 307.019531 C 667.921875 309.824219 662.332031 312.144531 656.542969 313.984375 C 650.753906 315.820312 644.851562 317.152344 638.832031 317.96875 C 632.8125 318.789062 626.769531 319.085938 620.699219 318.859375 C 620.542969 318.851562 620.386719 318.828125 620.234375 318.792969 C 614.207031 327.992188 607.597656 336.757812 600.410156 345.085938 C 599.277344 346.394531 598.117188 347.683594 596.953125 348.964844 C 602.527344 350.382812 608.179688 351.320312 613.910156 351.777344 C 619.644531 352.234375 625.371094 352.207031 631.101562 351.691406 C 636.828125 351.179688 642.46875 350.183594 648.027344 348.714844 C 653.589844 347.242188 658.984375 345.3125 664.214844 342.921875 C 666.75 341.765625 668.101562 345.886719 665.589844 347.035156 C 660.058594 349.546875 654.351562 351.5625 648.46875 353.089844 C 642.589844 354.613281 636.621094 355.621094 630.566406 356.117188 C 624.507812 356.609375 618.457031 356.578125 612.40625 356.023438 C 606.355469 355.472656 600.398438 354.402344 594.53125 352.820312 C 594.230469 352.738281 593.957031 352.605469 593.710938 352.410156 C 584.84375 361.773438 575.171875 370.214844 564.699219 377.742188 C 562.433594 379.355469 560.296875 375.582031 562.542969 373.972656 Z M 562.542969 373.972656 " fill-opacity="1" fill-rule="nonzero"/><path fill="#82ff44" d="M 721.09375 371.949219 C 721.6875 372.261719 722.339844 372.660156 722.511719 373.300781 C 722.609375 373.8125 722.542969 374.304688 722.320312 374.777344 C 719.328125 383.089844 711.59375 389.21875 703.03125 391.402344 C 694.46875 393.585938 685.25 392.136719 677.179688 388.558594 C 671.59375 386.074219 664.984375 382.390625 660.835938 377.808594 C 656.25 372.746094 663.890625 370.105469 668.042969 368.601562 C 673.558594 366.617188 679.238281 365.378906 685.082031 364.878906 C 690.921875 364.378906 696.730469 364.640625 702.503906 365.660156 C 709.027344 366.789062 715.222656 368.886719 721.09375 371.949219 Z M 721.09375 371.949219 " fill-opacity="1" fill-rule="nonzero"/><path fill="#82ff44" d="M 691.9375 402.476562 C 692.449219 402.917969 693.003906 403.441406 693.027344 404.113281 C 693.007812 404.636719 692.835938 405.097656 692.511719 405.507812 C 687.726562 412.9375 678.816406 417.175781 669.984375 417.386719 C 661.152344 417.59375 652.492188 414.109375 645.429688 408.796875 C 640.546875 405.125 634.933594 400.054688 631.929688 394.652344 C 628.589844 388.691406 636.628906 387.835938 641.015625 387.296875 C 646.835938 386.605469 652.644531 386.667969 658.449219 387.492188 C 664.25 388.316406 669.851562 389.871094 675.246094 392.160156 C 681.34375 394.734375 686.910156 398.171875 691.9375 402.476562 Z M 691.9375 402.476562 " fill-opacity="1" fill-rule="nonzero"/><path fill="#82ff44" d="M 696.09375 285.859375 C 695.84375 285.234375 695.527344 284.550781 694.898438 284.296875 C 694.398438 284.148438 693.902344 284.160156 693.410156 284.328125 C 684.832031 286.4375 677.921875 293.480469 674.847656 301.765625 C 671.773438 310.050781 672.246094 319.371094 674.96875 327.777344 C 676.851562 333.59375 679.820312 340.566406 683.941406 345.1875 C 688.492188 350.28125 691.917969 342.960938 693.851562 338.992188 C 696.40625 333.710938 698.242188 328.191406 699.355469 322.433594 C 700.46875 316.675781 700.824219 310.871094 700.417969 305.019531 C 699.972656 298.410156 698.53125 292.023438 696.09375 285.859375 Z M 696.09375 285.859375 " fill-opacity="1" fill-rule="nonzero"/><path fill="#82ff44" d="M 669.070312 312.878906 C 668.863281 312.234375 668.589844 311.53125 667.980469 311.242188 C 667.492188 311.0625 666.996094 311.039062 666.496094 311.175781 C 657.792969 312.726562 650.449219 319.308594 646.84375 327.375 C 643.242188 335.441406 643.109375 344.785156 645.285156 353.34375 C 646.792969 359.269531 649.300781 366.40625 653.101562 371.277344 C 657.3125 376.65625 661.207031 369.570312 663.40625 365.734375 C 666.292969 360.632812 668.476562 355.242188 669.957031 349.570312 C 671.4375 343.894531 672.164062 338.128906 672.136719 332.265625 C 672.121094 325.644531 671.101562 319.179688 669.070312 312.878906 Z M 669.070312 312.878906 " fill-opacity="1" fill-rule="nonzero"/><path fill="#82ff44" d="M 640.375 333.945312 C 640.183594 333.359375 639.933594 332.710938 639.375 332.441406 C 638.929688 332.277344 638.476562 332.261719 638.015625 332.386719 C 630.039062 333.804688 623.304688 339.847656 620 347.238281 C 616.695312 354.628906 616.578125 363.1875 618.578125 371.042969 C 619.960938 376.476562 622.257812 383.015625 625.753906 387.484375 C 629.617188 392.414062 633.1875 385.917969 635.191406 382.402344 C 637.835938 377.726562 639.835938 372.789062 641.195312 367.589844 C 642.550781 362.390625 643.214844 357.105469 643.191406 351.730469 C 643.179688 345.65625 642.238281 339.726562 640.375 333.945312 Z M 640.375 333.945312 " fill-opacity="1" fill-rule="nonzero"/><path fill="#82ff44" d="M 750.480469 348.113281 C 751.070312 348.445312 751.707031 348.851562 751.875 349.507812 C 751.953125 350.019531 751.875 350.511719 751.644531 350.976562 C 748.417969 359.199219 740.519531 365.113281 731.898438 367.058594 C 723.28125 369.007812 714.105469 367.296875 706.132812 363.480469 C 700.621094 360.84375 694.117188 356.980469 690.089844 352.28125 C 685.644531 347.09375 693.359375 344.667969 697.550781 343.277344 C 703.121094 341.453125 708.828125 340.371094 714.679688 340.035156 C 720.53125 339.695312 726.328125 340.117188 732.070312 341.296875 C 738.5625 342.613281 744.699219 344.882812 750.480469 348.113281 Z M 750.480469 348.113281 " fill-opacity="1" fill-rule="nonzero"/><path fill="#82ff44" d="M 708.453125 303.515625 C 714.28125 294.714844 722.855469 288.035156 732.039062 282.828125 C 735.945312 280.613281 740.523438 278.585938 744.785156 279.984375 C 745.445312 296.777344 738.15625 313.714844 725.503906 324.777344 C 721.753906 328.054688 705.53125 338.929688 702.105469 332.296875 C 697.964844 324.28125 704.066406 310.144531 708.453125 303.515625 Z M 708.453125 303.515625 " fill-opacity="1" fill-rule="nonzero"/><path fill="#00663e" d="M 603.222656 397.394531 C 611.90625 395.214844 620.328125 392.277344 628.484375 388.585938 C 627.453125 384.453125 626.78125 380.265625 626.472656 376.019531 C 626.164062 371.773438 626.222656 367.53125 626.648438 363.296875 C 627.070312 359.058594 627.855469 354.890625 629 350.789062 C 630.140625 346.691406 631.628906 342.71875 633.457031 338.875 C 634.296875 337.125 637.171875 338.125 636.324219 339.890625 C 634.570312 343.550781 633.140625 347.335938 632.035156 351.238281 C 630.929688 355.144531 630.160156 359.117188 629.730469 363.152344 C 629.300781 367.191406 629.21875 371.234375 629.480469 375.285156 C 629.742188 379.335938 630.34375 383.335938 631.285156 387.285156 C 639.988281 383.144531 648.308594 378.339844 656.246094 372.875 C 656.191406 372.769531 656.152344 372.65625 656.121094 372.539062 C 654.992188 368.027344 654.261719 363.457031 653.921875 358.820312 C 653.582031 354.183594 653.644531 349.550781 654.109375 344.925781 C 654.570312 340.296875 655.425781 335.746094 656.675781 331.269531 C 657.925781 326.789062 659.546875 322.453125 661.546875 318.253906 C 662.460938 316.347656 665.597656 317.4375 664.667969 319.363281 C 662.765625 323.34375 661.210938 327.457031 660.003906 331.699219 C 658.796875 335.945312 657.960938 340.261719 657.488281 344.648438 C 657.015625 349.035156 656.917969 353.429688 657.191406 357.835938 C 657.46875 362.238281 658.113281 366.589844 659.128906 370.882812 C 659.910156 370.324219 660.691406 369.765625 661.464844 369.199219 C 670.667969 362.410156 679.332031 354.996094 687.460938 346.957031 C 687.253906 346.757812 687.109375 346.519531 687.023438 346.246094 C 685.605469 341.816406 684.578125 337.300781 683.941406 332.695312 C 683.304688 328.089844 683.066406 323.464844 683.230469 318.820312 C 683.390625 314.171875 683.949219 309.574219 684.90625 305.023438 C 685.863281 300.476562 687.203125 296.042969 688.929688 291.722656 C 689.71875 289.761719 692.917969 290.65625 692.125 292.628906 C 690.476562 296.730469 689.191406 300.941406 688.257812 305.265625 C 687.328125 309.585938 686.773438 313.953125 686.585938 318.371094 C 686.402344 322.785156 686.589844 327.1875 687.15625 331.570312 C 687.71875 335.953125 688.648438 340.257812 689.949219 344.484375 C 697.6875 336.695312 704.996094 328.460938 711.953125 319.96875 C 720.761719 309.238281 729.050781 298.097656 737.148438 286.828125 C 738.394531 285.09375 741.027344 287.113281 739.78125 288.847656 C 725.214844 309.125 709.972656 329.039062 692.339844 346.761719 C 696.308594 348.535156 700.402344 349.96875 704.613281 351.058594 C 708.824219 352.148438 713.09375 352.878906 717.429688 353.25 C 721.761719 353.625 726.097656 353.632812 730.429688 353.28125 C 734.765625 352.925781 739.042969 352.214844 743.257812 351.144531 C 745.328125 350.617188 745.78125 353.902344 743.734375 354.425781 C 739.261719 355.550781 734.722656 356.289062 730.121094 356.636719 C 725.523438 356.984375 720.925781 356.9375 716.332031 356.496094 C 711.742188 356.054688 707.21875 355.226562 702.769531 354.011719 C 698.320312 352.792969 694.003906 351.207031 689.828125 349.25 C 681.414062 357.558594 672.4375 365.207031 662.902344 372.203125 C 666.925781 373.867188 671.054688 375.1875 675.296875 376.160156 C 679.539062 377.132812 683.832031 377.746094 688.175781 378 C 692.523438 378.253906 696.859375 378.144531 701.183594 377.671875 C 705.511719 377.195312 709.765625 376.367188 713.953125 375.179688 C 716.011719 374.59375 716.554688 377.867188 714.519531 378.449219 C 710.042969 379.707031 705.496094 380.574219 700.871094 381.046875 C 696.246094 381.519531 691.613281 381.589844 686.976562 381.261719 C 682.339844 380.9375 677.765625 380.210938 673.253906 379.09375 C 668.742188 377.976562 664.359375 376.480469 660.105469 374.601562 C 659.992188 374.554688 659.890625 374.496094 659.792969 374.425781 C 652.90625 379.269531 645.730469 383.636719 638.265625 387.527344 C 637.082031 388.140625 635.894531 388.738281 634.710938 389.320312 C 638.277344 391.902344 642.03125 394.167969 645.980469 396.113281 C 649.925781 398.058594 654.011719 399.660156 658.230469 400.910156 C 662.449219 402.164062 666.742188 403.054688 671.113281 403.578125 C 675.480469 404.101562 679.863281 404.253906 684.261719 404.035156 C 686.390625 403.925781 686.1875 407.234375 684.078125 407.347656 C 679.433594 407.570312 674.804688 407.394531 670.195312 406.816406 C 665.582031 406.242188 661.050781 405.273438 656.605469 403.914062 C 652.160156 402.554688 647.863281 400.824219 643.714844 398.722656 C 639.570312 396.621094 635.632812 394.175781 631.910156 391.394531 C 631.71875 391.253906 631.566406 391.082031 631.445312 390.878906 C 622.507812 395.027344 613.257812 398.296875 603.699219 400.691406 C 601.625 401.195312 601.167969 397.90625 603.222656 397.394531 Z M 603.222656 397.394531 " fill-opacity="1" fill-rule="nonzero"/><path fill="#3c415e" d="M 586.589844 211.058594 L 147.292969 211.058594 C 125.320312 211.058594 107.449219 228.890625 107.449219 250.8125 L 107.449219 565.738281 C 107.449219 566.304688 107.503906 566.867188 107.613281 567.425781 C 107.726562 567.984375 107.890625 568.523438 108.105469 569.050781 C 108.324219 569.574219 108.589844 570.074219 108.90625 570.546875 C 109.21875 571.019531 109.578125 571.453125 109.980469 571.855469 C 110.382812 572.257812 110.820312 572.617188 111.292969 572.933594 C 111.765625 573.25 112.261719 573.515625 112.785156 573.730469 C 113.3125 573.949219 113.851562 574.113281 114.410156 574.222656 C 114.96875 574.335938 115.53125 574.390625 116.097656 574.390625 L 617.804688 574.390625 C 618.371094 574.390625 618.933594 574.335938 619.492188 574.222656 C 620.050781 574.113281 620.589844 573.949219 621.113281 573.730469 C 621.640625 573.515625 622.136719 573.25 622.609375 572.933594 C 623.082031 572.617188 623.519531 572.257812 623.921875 571.855469 C 624.324219 571.453125 624.679688 571.019531 624.996094 570.546875 C 625.3125 570.074219 625.578125 569.574219 625.796875 569.050781 C 626.011719 568.523438 626.175781 567.984375 626.285156 567.425781 C 626.398438 566.867188 626.453125 566.304688 626.453125 565.738281 L 626.453125 250.8125 C 626.453125 228.890625 608.570312 211.058594 586.589844 211.058594 Z M 142.046875 513.828125 L 142.046875 254.308594 C 142.046875 253.742188 142.101562 253.179688 142.214844 252.621094 C 142.324219 252.066406 142.488281 251.523438 142.707031 251 C 142.921875 250.476562 143.191406 249.976562 143.503906 249.503906 C 143.820312 249.03125 144.179688 248.597656 144.582031 248.195312 C 144.980469 247.792969 145.417969 247.433594 145.890625 247.117188 C 146.363281 246.804688 146.863281 246.535156 147.386719 246.320312 C 147.910156 246.101562 148.453125 245.9375 149.007812 245.828125 C 149.566406 245.71875 150.128906 245.660156 150.695312 245.660156 L 583.203125 245.660156 C 583.769531 245.660156 584.332031 245.71875 584.890625 245.828125 C 585.449219 245.9375 585.988281 246.101562 586.511719 246.320312 C 587.039062 246.535156 587.535156 246.804688 588.007812 247.117188 C 588.480469 247.433594 588.917969 247.792969 589.320312 248.195312 C 589.71875 248.597656 590.078125 249.03125 590.394531 249.503906 C 590.710938 249.976562 590.976562 250.476562 591.195312 251 C 591.410156 251.523438 591.578125 252.066406 591.6875 252.621094 C 591.796875 253.179688 591.855469 253.742188 591.855469 254.308594 L 591.855469 513.828125 C 591.855469 514.394531 591.796875 514.957031 591.6875 515.515625 C 591.578125 516.070312 591.410156 516.613281 591.195312 517.136719 C 590.976562 517.660156 590.710938 518.160156 590.394531 518.632812 C 590.078125 519.105469 589.722656 519.542969 589.320312 519.941406 C 588.917969 520.34375 588.480469 520.703125 588.007812 521.019531 C 587.535156 521.332031 587.039062 521.601562 586.511719 521.816406 C 585.988281 522.035156 585.449219 522.199219 584.890625 522.308594 C 584.332031 522.421875 583.769531 522.476562 583.203125 522.476562 L 150.695312 522.476562 C 150.128906 522.476562 149.566406 522.421875 149.007812 522.308594 C 148.453125 522.199219 147.910156 522.035156 147.386719 521.816406 C 146.859375 521.601562 146.363281 521.332031 145.890625 521.019531 C 145.417969 520.703125 144.980469 520.34375 144.582031 519.941406 C 144.179688 519.542969 143.820312 519.105469 143.503906 518.632812 C 143.191406 518.160156 142.921875 517.660156 142.707031 517.136719 C 142.488281 516.613281 142.324219 516.070312 142.214844 515.515625 C 142.101562 514.957031 142.046875 514.394531 142.046875 513.828125 Z M 142.046875 513.828125 " fill-opacity="1" fill-rule="nonzero"/><path fill="#738598" d="M 635.101562 557.085938 L 98.796875 557.085938 C 98.226562 557.085938 97.664062 557.140625 97.105469 557.25 C 96.550781 557.363281 96.007812 557.527344 95.484375 557.742188 C 94.957031 557.960938 94.460938 558.226562 93.988281 558.542969 C 93.515625 558.859375 93.078125 559.214844 92.675781 559.617188 C 92.273438 560.019531 91.914062 560.457031 91.601562 560.929688 C 91.285156 561.402344 91.019531 561.902344 90.800781 562.425781 C 90.582031 562.953125 90.417969 563.492188 90.308594 564.050781 C 90.199219 564.605469 90.144531 565.171875 90.144531 565.738281 C 90.144531 566.871094 90.203125 568.003906 90.316406 569.132812 C 90.425781 570.261719 90.59375 571.382812 90.816406 572.492188 C 91.039062 573.605469 91.316406 574.703125 91.644531 575.789062 C 91.972656 576.875 92.355469 577.941406 92.792969 578.988281 C 93.226562 580.035156 93.710938 581.058594 94.246094 582.058594 C 94.78125 583.058594 95.363281 584.03125 95.992188 584.972656 C 96.625 585.914062 97.300781 586.824219 98.019531 587.703125 C 98.738281 588.578125 99.5 589.417969 100.300781 590.21875 C 101.101562 591.019531 101.941406 591.78125 102.816406 592.5 C 103.695312 593.222656 104.605469 593.894531 105.546875 594.527344 C 106.488281 595.15625 107.460938 595.738281 108.460938 596.273438 C 109.460938 596.808594 110.484375 597.292969 111.53125 597.726562 C 112.578125 598.164062 113.644531 598.542969 114.730469 598.875 C 115.816406 599.203125 116.914062 599.480469 118.027344 599.703125 C 119.136719 599.925781 120.257812 600.089844 121.386719 600.203125 C 122.515625 600.316406 123.648438 600.371094 124.78125 600.375 L 609.109375 600.375 C 610.246094 600.371094 611.375 600.316406 612.503906 600.203125 C 613.632812 600.089844 614.753906 599.925781 615.863281 599.703125 C 616.976562 599.480469 618.074219 599.203125 619.160156 598.875 C 620.246094 598.542969 621.3125 598.164062 622.359375 597.726562 C 623.40625 597.292969 624.429688 596.808594 625.429688 596.273438 C 626.429688 595.738281 627.398438 595.15625 628.34375 594.527344 C 629.285156 593.894531 630.195312 593.21875 631.070312 592.5 C 631.949219 591.78125 632.789062 591.019531 633.589844 590.21875 C 634.390625 589.417969 635.152344 588.578125 635.871094 587.703125 C 636.589844 586.824219 637.265625 585.914062 637.894531 584.972656 C 638.527344 584.03125 639.109375 583.058594 639.644531 582.058594 C 640.179688 581.058594 640.664062 580.035156 641.097656 578.988281 C 641.53125 577.941406 641.914062 576.875 642.242188 575.789062 C 642.574219 574.703125 642.851562 573.605469 643.070312 572.492188 C 643.292969 571.378906 643.460938 570.261719 643.574219 569.132812 C 643.683594 568.003906 643.742188 566.871094 643.742188 565.738281 C 643.742188 565.171875 643.6875 564.609375 643.578125 564.050781 C 643.46875 563.492188 643.304688 562.953125 643.089844 562.429688 C 642.871094 561.902344 642.605469 561.40625 642.289062 560.933594 C 641.976562 560.460938 641.617188 560.023438 641.214844 559.621094 C 640.816406 559.21875 640.378906 558.859375 639.90625 558.546875 C 639.433594 558.230469 638.9375 557.960938 638.410156 557.746094 C 637.886719 557.527344 637.347656 557.363281 636.789062 557.253906 C 636.234375 557.140625 635.671875 557.085938 635.101562 557.085938 Z M 635.101562 557.085938 " fill-opacity="1" fill-rule="nonzero"/><path fill="#dfe2e2" d="M 332.34375 574.390625 L 401.546875 574.390625 C 402.113281 574.390625 402.679688 574.363281 403.242188 574.304688 C 403.804688 574.25 404.367188 574.167969 404.921875 574.058594 C 405.476562 573.945312 406.027344 573.808594 406.570312 573.644531 C 407.109375 573.480469 407.644531 573.289062 408.167969 573.070312 C 408.691406 572.855469 409.203125 572.613281 409.703125 572.347656 C 410.199219 572.078125 410.6875 571.789062 411.15625 571.472656 C 411.628906 571.15625 412.082031 570.820312 412.519531 570.460938 C 412.960938 570.101562 413.378906 569.722656 413.777344 569.320312 C 414.179688 568.921875 414.558594 568.5 414.917969 568.0625 C 415.277344 567.625 415.617188 567.171875 415.929688 566.699219 C 416.246094 566.226562 416.535156 565.742188 416.804688 565.242188 C 417.070312 564.742188 417.3125 564.230469 417.527344 563.707031 C 417.746094 563.183594 417.9375 562.652344 418.101562 562.109375 C 418.265625 561.566406 418.402344 561.015625 418.511719 560.460938 C 418.625 559.90625 418.707031 559.347656 418.761719 558.78125 C 418.816406 558.21875 418.84375 557.652344 418.84375 557.085938 L 315.050781 557.085938 C 315.050781 557.652344 315.078125 558.21875 315.132812 558.78125 C 315.1875 559.347656 315.269531 559.90625 315.382812 560.460938 C 315.492188 561.019531 315.628906 561.566406 315.792969 562.109375 C 315.957031 562.652344 316.148438 563.183594 316.367188 563.707031 C 316.582031 564.230469 316.824219 564.742188 317.089844 565.242188 C 317.359375 565.742188 317.648438 566.230469 317.964844 566.699219 C 318.277344 567.171875 318.617188 567.625 318.976562 568.0625 C 319.335938 568.5 319.714844 568.921875 320.113281 569.320312 C 320.515625 569.722656 320.933594 570.101562 321.371094 570.460938 C 321.808594 570.820312 322.265625 571.160156 322.734375 571.472656 C 323.207031 571.789062 323.691406 572.078125 324.191406 572.347656 C 324.691406 572.613281 325.203125 572.855469 325.726562 573.074219 C 326.25 573.289062 326.78125 573.480469 327.324219 573.644531 C 327.867188 573.808594 328.414062 573.945312 328.96875 574.058594 C 329.527344 574.167969 330.085938 574.25 330.648438 574.308594 C 331.214844 574.363281 331.777344 574.390625 332.34375 574.390625 Z M 332.34375 574.390625 " fill-opacity="1" fill-rule="nonzero"/><path fill="#ffda32" d="M 136.640625 234.863281 L 600.5 234.863281 L 600.5 528.988281 L 136.640625 528.988281 Z M 136.640625 234.863281 " fill-opacity="1" fill-rule="nonzero"/><path fill="#faf9f9" d="M 281.058594 349.269531 L 301.152344 349.269531 L 301.152344 448.726562 L 281.058594 448.726562 Z M 281.058594 349.269531 " fill-opacity="1" fill-rule="nonzero"/><path fill="#faf9f9" d="M 432.746094 349.269531 L 452.839844 349.269531 L 452.839844 448.726562 L 432.746094 448.726562 Z M 432.746094 349.269531 " fill-opacity="1" fill-rule="nonzero"/><path fill="#faf9f9" d="M 382.855469 349.269531 L 402.945312 349.269531 L 402.945312 448.726562 L 382.855469 448.726562 Z M 382.855469 349.269531 " fill-opacity="1" fill-rule="nonzero"/><path fill="#faf9f9" d="M 330.953125 349.269531 L 351.042969 349.269531 L 351.042969 448.726562 L 330.953125 448.726562 Z M 330.953125 349.269531 " fill-opacity="1" fill-rule="nonzero"/><path fill="#738598" d="M 271.015625 441.195312 L 462.882812 441.195312 L 462.882812 471.332031 L 271.015625 471.332031 Z M 271.015625 441.195312 " fill-opacity="1" fill-rule="nonzero"/><path fill="#738598" d="M 462.882812 334.707031 L 271.015625 334.707031 L 366.949219 274.425781 Z M 462.882812 334.707031 " fill-opacity="1" fill-rule="nonzero"/><path fill="#3c415e" d="M 271.015625 334.707031 L 462.882812 334.707031 L 462.882812 354.796875 L 271.015625 354.796875 Z M 271.015625 334.707031 " fill-opacity="1" fill-rule="nonzero"/><path fill="#3c415e" d="M 260.96875 461.289062 L 472.925781 461.289062 L 472.925781 486.40625 L 260.96875 486.40625 Z M 260.96875 461.289062 " fill-opacity="1" fill-rule="nonzero"/><path fill="#e59d00" d="M 714.398438 560.765625 C 714.398438 612.882812 663.136719 609.890625 599.488281 609.890625 C 535.839844 609.890625 484.578125 612.457031 484.578125 560.765625 C 484.578125 508.648438 535.839844 421.921875 599.488281 421.921875 C 663.136719 422.351562 714.398438 509.074219 714.398438 560.765625 Z M 714.398438 560.765625 " fill-opacity="1" fill-rule="nonzero"/><path fill="#e59d00" d="M 543.527344 368.507812 C 543.527344 343.304688 568.730469 344.582031 599.488281 344.582031 C 630.246094 344.582031 655.449219 343.304688 655.449219 368.507812 C 655.449219 393.707031 630.246094 434.847656 599.488281 434.847656 C 568.730469 434.847656 543.527344 393.734375 543.527344 368.507812 Z M 543.527344 368.507812 " fill-opacity="1" fill-rule="nonzero"/><path fill="#aa7d00" d="M 648.613281 427.050781 C 648.617188 427.554688 648.570312 428.054688 648.472656 428.550781 C 648.375 429.046875 648.230469 429.53125 648.039062 429.996094 C 647.84375 430.464844 647.609375 430.910156 647.328125 431.328125 C 647.046875 431.75 646.730469 432.140625 646.371094 432.496094 C 646.015625 432.855469 645.625 433.171875 645.203125 433.453125 C 644.785156 433.734375 644.339844 433.96875 643.875 434.164062 C 643.40625 434.355469 642.925781 434.5 642.429688 434.597656 C 641.933594 434.695312 641.429688 434.742188 640.925781 434.738281 L 558.050781 434.738281 C 557.546875 434.742188 557.046875 434.695312 556.550781 434.597656 C 556.054688 434.5 555.574219 434.355469 555.105469 434.164062 C 554.636719 433.96875 554.195312 433.734375 553.773438 433.453125 C 553.351562 433.171875 552.964844 432.855469 552.605469 432.496094 C 552.25 432.140625 551.929688 431.75 551.648438 431.328125 C 551.371094 430.910156 551.132812 430.464844 550.941406 429.996094 C 550.75 429.53125 550.605469 429.046875 550.507812 428.550781 C 550.410156 428.054688 550.363281 427.554688 550.363281 427.050781 L 550.363281 424.917969 C 550.363281 424.414062 550.410156 423.914062 550.507812 423.417969 C 550.605469 422.921875 550.75 422.4375 550.941406 421.972656 C 551.132812 421.503906 551.371094 421.058594 551.648438 420.640625 C 551.929688 420.21875 552.25 419.828125 552.605469 419.472656 C 552.964844 419.113281 553.351562 418.796875 553.773438 418.515625 C 554.195312 418.234375 554.636719 418 555.105469 417.804688 C 555.574219 417.613281 556.054688 417.46875 556.550781 417.371094 C 557.046875 417.273438 557.546875 417.226562 558.050781 417.230469 L 641.351562 417.230469 C 641.859375 417.226562 642.359375 417.273438 642.855469 417.371094 C 643.351562 417.46875 643.832031 417.613281 644.300781 417.804688 C 644.765625 418 645.210938 418.234375 645.632812 418.515625 C 646.050781 418.796875 646.441406 419.113281 646.796875 419.472656 C 647.15625 419.828125 647.472656 420.21875 647.753906 420.640625 C 648.035156 421.058594 648.273438 421.503906 648.464844 421.972656 C 648.65625 422.4375 648.800781 422.921875 648.898438 423.417969 C 648.996094 423.914062 649.042969 424.414062 649.039062 424.917969 L 649.039062 427.050781 Z M 648.613281 427.050781 " fill-opacity="1" fill-rule="nonzero"/><path fill="#aa7d00" d="M 635.738281 489.484375 C 636.921875 490.671875 638.050781 491.914062 639.113281 493.210938 C 640.179688 494.507812 641.179688 495.855469 642.109375 497.253906 C 643.042969 498.648438 643.90625 500.085938 644.699219 501.566406 C 645.488281 503.046875 646.207031 504.5625 646.847656 506.113281 C 647.492188 507.667969 648.054688 509.246094 648.542969 510.851562 C 649.03125 512.457031 649.4375 514.085938 649.765625 515.730469 C 650.09375 517.378906 650.339844 519.039062 650.503906 520.707031 C 650.667969 522.378906 650.75 524.054688 650.75 525.734375 C 650.75 527.410156 650.667969 529.085938 650.503906 530.757812 C 650.339844 532.429688 650.09375 534.085938 649.765625 535.734375 C 649.4375 537.378906 649.03125 539.007812 648.542969 540.613281 C 648.054688 542.222656 647.492188 543.800781 646.847656 545.351562 C 646.207031 546.902344 645.488281 548.417969 644.699219 549.898438 C 643.90625 551.378906 643.042969 552.816406 642.109375 554.214844 C 641.179688 555.609375 640.179688 556.957031 639.113281 558.253906 C 638.050781 559.550781 636.921875 560.792969 635.738281 561.980469 C 634.550781 563.167969 633.308594 564.296875 632.007812 565.359375 C 630.710938 566.425781 629.363281 567.425781 627.96875 568.355469 C 626.574219 569.289062 625.132812 570.152344 623.652344 570.945312 C 622.171875 571.734375 620.65625 572.453125 619.105469 573.09375 C 617.554688 573.738281 615.976562 574.300781 614.371094 574.789062 C 612.761719 575.277344 611.136719 575.683594 609.488281 576.011719 C 607.84375 576.339844 606.183594 576.585938 604.515625 576.75 C 602.84375 576.914062 601.167969 576.996094 599.488281 576.996094 C 597.8125 576.996094 596.136719 576.914062 594.464844 576.75 C 592.792969 576.585938 591.136719 576.339844 589.488281 576.011719 C 587.84375 575.683594 586.214844 575.277344 584.609375 574.789062 C 583.003906 574.300781 581.425781 573.738281 579.875 573.09375 C 578.324219 572.453125 576.804688 571.734375 575.324219 570.945312 C 573.84375 570.152344 572.40625 569.289062 571.011719 568.355469 C 569.617188 567.425781 568.269531 566.425781 566.972656 565.359375 C 565.671875 564.296875 564.429688 563.167969 563.242188 561.980469 C 562.054688 560.792969 560.929688 559.550781 559.863281 558.253906 C 558.800781 556.957031 557.800781 555.609375 556.867188 554.214844 C 555.9375 552.816406 555.074219 551.378906 554.28125 549.898438 C 553.492188 548.417969 552.773438 546.902344 552.132812 545.351562 C 551.488281 543.800781 550.925781 542.21875 550.4375 540.613281 C 549.949219 539.007812 549.542969 537.378906 549.214844 535.734375 C 548.886719 534.085938 548.640625 532.429688 548.476562 530.757812 C 548.3125 529.085938 548.230469 527.410156 548.230469 525.734375 C 548.230469 524.054688 548.3125 522.378906 548.476562 520.707031 C 548.640625 519.039062 548.886719 517.378906 549.214844 515.730469 C 549.542969 514.085938 549.949219 512.457031 550.4375 510.851562 C 550.925781 509.246094 551.488281 507.667969 552.132812 506.113281 C 552.773438 504.5625 553.492188 503.046875 554.28125 501.566406 C 555.074219 500.085938 555.9375 498.648438 556.867188 497.253906 C 557.800781 495.855469 558.800781 494.507812 559.863281 493.210938 C 560.929688 491.914062 562.054688 490.671875 563.242188 489.484375 C 564.429688 488.296875 565.671875 487.171875 566.972656 486.105469 C 568.269531 485.039062 569.617188 484.042969 571.011719 483.109375 C 572.40625 482.175781 573.84375 481.3125 575.324219 480.523438 C 576.804688 479.730469 578.324219 479.011719 579.875 478.371094 C 581.425781 477.730469 583.003906 477.164062 584.609375 476.675781 C 586.214844 476.1875 587.84375 475.78125 589.488281 475.453125 C 591.136719 475.125 592.792969 474.878906 594.464844 474.714844 C 596.136719 474.550781 597.8125 474.46875 599.488281 474.46875 C 601.167969 474.46875 602.84375 474.550781 604.515625 474.714844 C 606.183594 474.878906 607.84375 475.125 609.488281 475.453125 C 611.136719 475.78125 612.761719 476.1875 614.371094 476.675781 C 615.976562 477.164062 617.554688 477.730469 619.105469 478.371094 C 620.65625 479.011719 622.171875 479.730469 623.652344 480.523438 C 625.132812 481.3125 626.574219 482.175781 627.96875 483.109375 C 629.363281 484.042969 630.710938 485.039062 632.007812 486.105469 C 633.308594 487.171875 634.550781 488.296875 635.738281 489.484375 Z M 635.738281 489.484375 " fill-opacity="1" fill-rule="nonzero"/><path fill="#6e5a00" d="M 595.214844 567.171875 L 595.214844 556.492188 C 586.6875 556.066406 581.972656 554.359375 578.128906 552.230469 L 580.691406 540.695312 C 584.953125 542.828125 590.519531 544.960938 596.925781 544.960938 C 602.476562 544.960938 606.324219 542.828125 606.324219 538.980469 C 606.324219 535.132812 603.332031 533 595.644531 530.453125 C 584.964844 527.039062 578.128906 521.925781 578.128906 512.511719 C 578.128906 503.984375 581.972656 497.132812 594.789062 494.996094 L 594.789062 486.003906 L 603.316406 486.003906 L 603.316406 494.53125 C 611.84375 494.957031 614.847656 496.238281 617.839844 497.949219 L 615.273438 509.054688 C 612.710938 507.773438 608.441406 505.636719 601.179688 505.636719 C 594.785156 505.636719 592.652344 508.199219 592.652344 511.191406 C 592.652344 514.609375 596.070312 516.316406 604.617188 519.71875 C 616.148438 523.980469 620.847656 529.117188 620.847656 538.089844 C 620.847656 547.058594 616.148438 554.320312 603.332031 556.457031 L 603.332031 567.136719 Z M 595.214844 567.171875 " fill-opacity="1" fill-rule="nonzero"/><path fill="#00bb41" d="M 628.523438 579.171875 L 753.375 579.171875 L 753.375 609.980469 L 628.523438 609.980469 Z M 628.523438 579.171875 " fill-opacity="1" fill-rule="nonzero"/><path fill="#00a127" d="M 628.523438 582.546875 L 753.375 582.546875 L 753.375 583.359375 L 628.523438 583.359375 Z M 628.523438 582.546875 " fill-opacity="1" fill-rule="nonzero"/><path fill="#00a127" d="M 628.523438 587.28125 L 753.375 587.28125 L 753.375 588.089844 L 628.523438 588.089844 Z M 628.523438 587.28125 " fill-opacity="1" fill-rule="nonzero"/><path fill="#00a127" d="M 628.523438 592.011719 L 753.375 592.011719 L 753.375 592.820312 L 628.523438 592.820312 Z M 628.523438 592.011719 " fill-opacity="1" fill-rule="nonzero"/><path fill="#00a127" d="M 628.523438 596.738281 L 753.375 596.738281 L 753.375 597.550781 L 628.523438 597.550781 Z M 628.523438 596.738281 " fill-opacity="1" fill-rule="nonzero"/><path fill="#00a127" d="M 628.523438 601.46875 L 753.375 601.46875 L 753.375 602.277344 L 628.523438 602.277344 Z M 628.523438 601.46875 " fill-opacity="1" fill-rule="nonzero"/><path fill="#00a127" d="M 628.523438 606.199219 L 753.375 606.199219 L 753.375 607.007812 L 628.523438 607.007812 Z M 628.523438 606.199219 " fill-opacity="1" fill-rule="nonzero"/><path fill="#ffea5d" d="M 666.628906 579.171875 L 697.433594 579.171875 L 697.433594 609.980469 L 666.628906 609.980469 Z M 666.628906 579.171875 " fill-opacity="1" fill-rule="nonzero"/><path fill="#ffffff" d="M 671.222656 579.171875 L 672.839844 579.171875 L 672.839844 609.980469 L 671.222656 609.980469 Z M 671.222656 579.171875 " fill-opacity="1" fill-rule="nonzero"/><path fill="#ffffff" d="M 690.949219 579.171875 L 692.570312 579.171875 L 692.570312 609.980469 L 690.949219 609.980469 Z M 690.949219 579.171875 " fill-opacity="1" fill-rule="nonzero"/><path fill="#00bb41" d="M 642.335938 549.511719 L 767.191406 549.511719 L 767.191406 580.320312 L 642.335938 580.320312 Z M 642.335938 549.511719 " fill-opacity="1" fill-rule="nonzero"/><path fill="#00a127" d="M 642.335938 552.890625 L 767.191406 552.890625 L 767.191406 553.699219 L 642.335938 553.699219 Z M 642.335938 552.890625 " fill-opacity="1" fill-rule="nonzero"/><path fill="#00a127" d="M 642.335938 557.621094 L 767.191406 557.621094 L 767.191406 558.429688 L 642.335938 558.429688 Z M 642.335938 557.621094 " fill-opacity="1" fill-rule="nonzero"/><path fill="#00a127" d="M 642.335938 562.347656 L 767.191406 562.347656 L 767.191406 563.160156 L 642.335938 563.160156 Z M 642.335938 562.347656 " fill-opacity="1" fill-rule="nonzero"/><path fill="#00a127" d="M 642.335938 567.078125 L 767.191406 567.078125 L 767.191406 567.886719 L 642.335938 567.886719 Z M 642.335938 567.078125 " fill-opacity="1" fill-rule="nonzero"/><path fill="#00a127" d="M 642.335938 571.808594 L 767.191406 571.808594 L 767.191406 572.617188 L 642.335938 572.617188 Z M 642.335938 571.808594 " fill-opacity="1" fill-rule="nonzero"/><path fill="#00a127" d="M 642.335938 576.539062 L 767.191406 576.539062 L 767.191406 577.351562 L 642.335938 577.351562 Z M 642.335938 576.539062 " fill-opacity="1" fill-rule="nonzero"/><path fill="#ffea5d" d="M 680.441406 549.511719 L 711.246094 549.511719 L 711.246094 580.320312 L 680.441406 580.320312 Z M 680.441406 549.511719 " fill-opacity="1" fill-rule="nonzero"/><path fill="#ffffff" d="M 685.035156 549.511719 L 686.65625 549.511719 L 686.65625 580.320312 L 685.035156 580.320312 Z M 685.035156 549.511719 " fill-opacity="1" fill-rule="nonzero"/><path fill="#ffffff" d="M 704.761719 549.511719 L 706.382812 549.511719 L 706.382812 580.320312 L 704.761719 580.320312 Z M 704.761719 549.511719 " fill-opacity="1" fill-rule="nonzero"/><path fill="#00bb41" d="M 615.523438 519.851562 L 740.375 519.851562 L 740.375 550.664062 L 615.523438 550.664062 Z M 615.523438 519.851562 " fill-opacity="1" fill-rule="nonzero"/><path fill="#00a127" d="M 615.523438 523.230469 L 740.375 523.230469 L 740.375 524.039062 L 615.523438 524.039062 Z M 615.523438 523.230469 " fill-opacity="1" fill-rule="nonzero"/><path fill="#00a127" d="M 615.523438 527.957031 L 740.375 527.957031 L 740.375 528.769531 L 615.523438 528.769531 Z M 615.523438 527.957031 " fill-opacity="1" fill-rule="nonzero"/><path fill="#00a127" d="M 615.523438 532.691406 L 740.375 532.691406 L 740.375 533.5 L 615.523438 533.5 Z M 615.523438 532.691406 " fill-opacity="1" fill-rule="nonzero"/><path fill="#00a127" d="M 615.523438 537.421875 L 740.375 537.421875 L 740.375 538.230469 L 615.523438 538.230469 Z M 615.523438 537.421875 " fill-opacity="1" fill-rule="nonzero"/><path fill="#00a127" d="M 615.523438 542.148438 L 740.375 542.148438 L 740.375 542.960938 L 615.523438 542.960938 Z M 615.523438 542.148438 " fill-opacity="1" fill-rule="nonzero"/><path fill="#00a127" d="M 615.523438 546.878906 L 740.375 546.878906 L 740.375 547.6875 L 615.523438 547.6875 Z M 615.523438 546.878906 " fill-opacity="1" fill-rule="nonzero"/><path fill="#ffea5d" d="M 653.628906 519.851562 L 684.433594 519.851562 L 684.433594 550.664062 L 653.628906 550.664062 Z M 653.628906 519.851562 " fill-opacity="1" fill-rule="nonzero"/><path fill="#ffffff" d="M 658.222656 519.851562 L 659.839844 519.851562 L 659.839844 550.664062 L 658.222656 550.664062 Z M 658.222656 519.851562 " fill-opacity="1" fill-rule="nonzero"/><path fill="#ffffff" d="M 677.949219 519.851562 L 679.570312 519.851562 L 679.570312 550.664062 L 677.949219 550.664062 Z M 677.949219 519.851562 " fill-opacity="1" fill-rule="nonzero"/><path fill="#f7c4a3" d="M 210.128906 349.703125 C 208.558594 345.21875 205.964844 338.824219 197.597656 338.441406 C 189.230469 338.054688 181.410156 342.234375 180.609375 348.429688 C 179.8125 354.628906 182.914062 362.683594 183.90625 367.195312 C 184.898438 371.707031 183.289062 377.964844 183.289062 377.964844 L 200.925781 379.988281 C 200.925781 379.988281 201.992188 374.304688 203.433594 372.359375 C 204.230469 371.265625 206.988281 369.410156 210.183594 367.527344 C 211.574219 366.699219 212.875 364.757812 212.609375 361.382812 C 212.210938 356.339844 212.121094 354.136719 211.617188 352.601562 C 211.234375 351.5 210.480469 350.675781 210.128906 349.703125 Z M 210.128906 349.703125 " fill-opacity="1" fill-rule="nonzero"/><path fill="#f7c4a3" d="M 172.113281 409.65625 L 171.070312 428.261719 C 170.96875 430.082031 171.257812 431.835938 171.933594 433.527344 L 179.140625 451.542969 L 183.835938 446.832031 L 179.140625 428.925781 L 180.148438 411.070312 Z M 172.113281 409.65625 " fill-opacity="1" fill-rule="nonzero"/><path fill="#f7c4a3" d="M 200.535156 457.65625 L 179.039062 440.378906 C 179.039062 440.378906 174 452.53125 177.996094 465.277344 C 179.964844 471.546875 177.871094 475.996094 178.933594 478.96875 C 179.925781 481.742188 187.210938 521.1875 186.808594 524.09375 C 186.410156 527 183.191406 535.179688 182.09375 543.726562 C 180.890625 553.125 181.675781 581.804688 181.054688 593.449219 L 181.03125 593.449219 C 181.03125 593.449219 180.519531 602.121094 179.542969 604.039062 C 178.566406 605.960938 177.179688 608.097656 176.988281 610.660156 C 176.878906 612.148438 177.742188 613.703125 179.476562 614.53125 C 181.210938 615.363281 182.320312 614.425781 182.9375 614.488281 C 186.515625 614.84375 187.199219 617.53125 193.363281 618.394531 C 195.261719 618.660156 198.132812 617.953125 199.761719 616.617188 C 199.894531 616.503906 200.003906 616.367188 200.085938 616.210938 C 200.171875 616.054688 200.222656 615.886719 200.242188 615.710938 C 200.261719 615.535156 200.25 615.359375 200.203125 615.1875 C 200.15625 615.015625 200.078125 614.859375 199.972656 614.71875 C 199.617188 614.160156 195.046875 612.71875 192.972656 611.460938 C 191 610.261719 189.019531 606.867188 188.460938 605.699219 C 188.320312 605.394531 188.332031 604.546875 188.421875 603.449219 C 188.652344 601.625 188.914062 599.71875 189.199219 597.765625 C 189.445312 596.289062 189.648438 595.203125 189.648438 595.203125 L 189.585938 595.203125 C 193.445312 569.886719 200.953125 536.363281 201.960938 524.851562 C 203.058594 511.976562 201.921875 488.566406 200.535156 457.65625 Z M 200.535156 457.65625 " fill-opacity="1" fill-rule="nonzero"/><path fill="#1a1a1a" d="M 200.230469 617.042969 C 200.660156 616.265625 200.742188 615.109375 200.320312 614.835938 C 199.078125 614.019531 197.789062 613.285156 196.453125 612.632812 C 195.25 612.113281 193.359375 611.675781 194.027344 612.015625 C 194.699219 612.359375 193.511719 613.730469 192.398438 613.6875 C 188.554688 613.546875 185.648438 611.0625 183.460938 610.5625 C 180.285156 609.851562 178.875 606.160156 178.71875 605.558594 C 178.132812 605.949219 176.816406 608.984375 176.558594 609.933594 C 176.324219 610.792969 175.90625 612.363281 176.167969 613.246094 C 176.53125 614.261719 176.671875 615.308594 176.59375 616.382812 C 176.59375 616.382812 177.226562 616.847656 178.882812 617.148438 C 179.699219 617.253906 180.515625 617.246094 181.328125 617.125 L 181.550781 615.136719 C 182.210938 615.113281 182.863281 615.160156 183.507812 615.28125 C 184.585938 615.566406 185.589844 616.003906 186.527344 616.605469 C 186.976562 617.117188 187.351562 618.0625 187.945312 618.339844 C 189.554688 619.085938 191.242188 619.464844 193.011719 619.476562 C 197.125 619.617188 199.496094 618.363281 200.230469 617.042969 Z M 200.230469 617.042969 " fill-opacity="1" fill-rule="nonzero"/><path fill="#f7c4a3" d="M 231.445312 615.066406 C 230.988281 614.570312 226.097656 613.824219 223.796875 612.890625 C 221.605469 612 218.933594 609.097656 218.410156 607.855469 C 217.882812 606.617188 217.9375 600.316406 217.976562 597.667969 C 218.25 579.4375 221.171875 534.867188 221.527344 524.195312 C 222.1875 505.648438 219.589844 486.53125 212.15625 456.851562 L 185.390625 436.726562 C 185.390625 436.726562 178.09375 450.628906 180.714844 463.824219 C 182.242188 471.480469 188.613281 472.597656 189.71875 475.566406 C 190.824219 478.539062 207.378906 526.445312 207.378906 526.445312 C 207.378906 526.445312 204.355469 536.867188 204.292969 548.253906 C 204.238281 557.972656 208.941406 587.242188 209.871094 598.40625 C 209.988281 600.582031 210.417969 605.804688 209.789062 607.476562 C 209.023438 609.519531 207.039062 611.9375 207.167969 614.503906 C 207.238281 615.992188 208.328125 617.40625 210.21875 617.972656 C 212.109375 618.539062 213.148438 617.4375 213.773438 617.402344 C 217.515625 617.210938 218.578125 619.777344 225.046875 619.710938 C 227.039062 619.6875 229.917969 618.554688 231.441406 616.972656 C 231.566406 616.847656 231.660156 616.699219 231.730469 616.535156 C 231.796875 616.371094 231.832031 616.199219 231.832031 616.019531 C 231.832031 615.84375 231.796875 615.671875 231.730469 615.503906 C 231.664062 615.339844 231.570312 615.195312 231.445312 615.066406 Z M 231.445312 615.066406 " fill-opacity="1" fill-rule="nonzero"/><path fill="#1a1a1a" d="M 232.011719 617.339844 C 232.367188 616.507812 232.296875 615.347656 231.828125 615.140625 C 230.441406 614.519531 229.019531 613.984375 227.5625 613.539062 C 226.257812 613.203125 224.242188 613.054688 224.980469 613.296875 C 225.71875 613.539062 224.660156 615.074219 223.507812 615.199219 C 219.515625 615.628906 216.214844 613.605469 213.875 613.445312 C 210.503906 613.214844 209.230469 609.757812 208.996094 609.183594 C 208.4375 609.660156 206.808594 612.875 206.664062 613.855469 C 206.527344 614.738281 206.308594 616.339844 206.664062 617.195312 C 207.167969 618.148438 207.449219 619.160156 207.5 620.238281 C 207.5 620.238281 208.210938 620.59375 209.964844 620.652344 C 210.820312 620.632812 211.664062 620.503906 212.484375 620.265625 L 212.464844 618.257812 C 213.140625 618.136719 213.820312 618.085938 214.507812 618.105469 C 215.710938 618.191406 216.8125 618.566406 217.8125 619.242188 C 218.367188 619.644531 218.949219 620.339844 219.589844 620.496094 C 221.316406 620.957031 223.066406 621.078125 224.839844 620.851562 C 229.128906 620.359375 231.421875 618.761719 232.011719 617.339844 Z M 232.011719 617.339844 " fill-opacity="1" fill-rule="nonzero"/><path fill="#f7c4a3" d="M 260.222656 433.808594 C 260.898438 435.164062 265.023438 436.296875 267.355469 435.828125 C 271.042969 435.078125 276.621094 436.792969 279.574219 428.914062 C 279.910156 428.015625 278.023438 426.148438 276.199219 427.007812 C 273.65625 428.203125 271.277344 427.960938 268.992188 426.675781 C 269.191406 426.128906 269.703125 426.40625 270.683594 425.808594 C 271.773438 425.152344 272.070312 424.234375 271.871094 423.742188 C 271.722656 423.386719 270.316406 423.960938 269.960938 423.992188 L 265.90625 424.367188 C 264.503906 424.421875 263.246094 424.882812 262.140625 425.746094 C 261.914062 425.914062 259.820312 427.828125 260.769531 428.234375 " fill-opacity="1" fill-rule="nonzero"/><path fill="#f7c4a3" d="M 197.523438 408.019531 C 204.859375 415.171875 219.125 426.46875 221.273438 427.773438 C 229.730469 432.910156 260.449219 433.855469 260.449219 433.855469 C 260.449219 433.855469 263.769531 430.210938 261.871094 426.367188 C 253.484375 426.921875 232.324219 417.058594 228.78125 416.710938 C 226.488281 416.488281 204.652344 392.332031 204.652344 392.332031 " fill-opacity="1" fill-rule="nonzero"/><path fill="#f9b253" d="M 176.503906 389.007812 C 176.503906 389.007812 172.269531 400.425781 170.882812 409.460938 L 181.132812 411.070312 L 181.132812 396.554688 " fill-opacity="1" fill-rule="nonzero"/><path fill="#333333" d="M 211.148438 435.550781 C 211.320312 437.179688 220.058594 455.445312 221.140625 475.019531 C 221.851562 488.003906 222.046875 495.449219 221.035156 504.8125 C 211.921875 510.179688 191.785156 510.808594 181.867188 503.621094 C 181.996094 495.871094 179.820312 485.855469 178.761719 479.070312 C 178.296875 476.085938 175.28125 467.875 174.886719 464.886719 C 173.398438 453.597656 176.234375 443.019531 183.621094 436.644531 Z M 211.148438 435.550781 " fill-opacity="1" fill-rule="nonzero"/><path fill="#00a99d" d="M 210.875 417.949219 C 210.5 421.445312 210.875 426.832031 211.359375 432.796875 C 211.449219 433.8125 211.933594 435.691406 211.847656 436.703125 C 211.800781 437.320312 211.542969 437.828125 211.070312 438.226562 C 210.007812 439.269531 207.953125 439.914062 205.695312 440.308594 C 198.351562 441.636719 186.738281 440.75 183.464844 441.375 C 180.390625 441.996094 177.226562 440.953125 177.226562 439.074219 C 177.226562 437.769531 178.421875 437.039062 178.53125 434.472656 C 178.777344 428.855469 178.597656 416.066406 177.558594 410.359375 C 176.582031 404.953125 175.921875 400.539062 175.632812 396.097656 C 175.59375 395.507812 175.582031 394.917969 175.605469 394.332031 C 175.625 393.742188 175.675781 393.15625 175.753906 392.570312 C 175.832031 391.988281 175.941406 391.410156 176.078125 390.835938 C 176.21875 390.261719 176.382812 389.699219 176.578125 389.140625 C 176.773438 388.585938 176.996094 388.042969 177.246094 387.507812 C 177.492188 386.972656 177.769531 386.453125 178.070312 385.949219 C 178.375 385.441406 178.699219 384.953125 179.050781 384.480469 C 179.402344 384.007812 179.777344 383.550781 180.175781 383.117188 C 180.574219 382.683594 180.992188 382.269531 181.429688 381.875 C 181.867188 381.480469 182.328125 381.113281 182.804688 380.765625 C 183.277344 380.417969 183.773438 380.097656 184.28125 379.800781 C 184.789062 379.503906 185.3125 379.230469 185.847656 378.988281 C 186.382812 378.742188 186.929688 378.527344 187.488281 378.335938 C 188.046875 378.148438 188.613281 377.988281 189.1875 377.855469 C 189.761719 377.722656 190.339844 377.621094 190.925781 377.546875 C 191.511719 377.472656 192.097656 377.429688 192.6875 377.414062 C 197.066406 377.3125 200.777344 377.265625 201.425781 377.371094 C 202.6875 377.570312 209.785156 384.316406 211.800781 392.292969 C 212.828125 393.941406 213.691406 395.671875 214.390625 397.484375 C 215.390625 400.160156 215.273438 402.132812 214.367188 404.5625 C 212.644531 409.277344 211.425781 412.660156 210.875 417.949219 Z M 210.875 417.949219 " fill-opacity="1" fill-rule="nonzero"/><path fill="#00a99d" d="M 208.605469 385.636719 C 208.605469 385.636719 213.722656 390.007812 214.644531 394.296875 C 215.867188 400.027344 221.300781 408.121094 221.300781 408.121094 C 221.300781 408.121094 214.035156 419.015625 210.230469 422.191406 C 210.230469 422.191406 208.40625 419.53125 201.214844 414.019531 C 193.78125 408.335938 180.253906 405.515625 180.253906 405.515625 Z M 208.605469 385.636719 " fill-opacity="1" fill-rule="nonzero"/><path fill="#333333" d="M 205.925781 347.308594 C 208.839844 345.914062 206.5625 338.539062 202.667969 336.449219 C 195.007812 332.339844 174.085938 333 174.988281 358.6875 C 175.890625 384.378906 155.0625 396.707031 153.011719 398.167969 C 148.949219 401.085938 151.382812 402.382812 159.546875 404.867188 C 165.34375 406.644531 164.6875 410.578125 167.835938 411.710938 C 170.980469 412.84375 173.519531 412.660156 178.238281 409.695312 C 182.953125 406.726562 183.039062 411.894531 186.316406 412.589844 C 192.972656 414.011719 194.433594 406.757812 193.003906 402.519531 C 191.570312 398.28125 184.3125 364.996094 193.308594 359.234375 C 197.402344 356.613281 199.921875 362.261719 199.921875 362.261719 C 199.921875 362.261719 200.113281 350.082031 205.925781 347.308594 Z M 205.925781 347.308594 " fill-opacity="1" fill-rule="nonzero"/></svg>